<?xml version="1.0" encoding="utf-8" standalone="no"?><!DOCTYPE svg PUBLIC "-//W3C//DTD SVG 20010904//EN" "http://www.w3.org/TR/2001/REC-SVG-20010904/DTD/svg10.dtd"><svg xmlns="http://www.w3.org/2000/svg" width="661" height="407" xmlns:xlink="http://www.w3.org/1999/xlink"><source><![CDATA[Title: Software Architecture
participant Firebase
participant NodeJS
participant Redux
participant ReactDOM
participant User
Firebase->NodeJS: Whole Dataset
User-->Redux:update request
Redux-->NodeJS: data query
NodeJS->Redux: returning data
Redux->ReactDOM: updated data
ReactDOM-> User: updated UI]]></source><desc>Software Architecture</desc><defs><marker viewBox="0 0 5 5" markerWidth="5" markerHeight="5" orient="auto" refX="5" refY="2.5" id="markerArrowBlock"><path d="M 0 0 L 5 2.5 L 0 5 z"></path></marker><marker viewBox="0 0 9.6 16" markerWidth="4" markerHeight="16" orient="auto" refX="9.6" refY="8" id="markerArrowOpen"><path d="M 9.6,8 1.92,16 0,13.7 5.76,8 0,2.286 1.92,0 9.6,8 z"></path></marker></defs><g class="title"><path d="M10,10C93.6,18.4 168.9,1.6 219.1,10.0C218.0,29.0 220.2,30.6 219.1,37.2C74.3,28.8 71.1,45.5 10.0,37.2C8.9,23.1 11.1,26.1 10.0,10.0" stroke="#000000" fill="#ffffff" style="stroke-width: 2;"></path><text x="15.578125" y="28.71875" style="font-size: 16px; font-family: danielbd;"><tspan x="15">Software Architecture</tspan></text></g><g class="actor"><path d="M10,47.15625C28.3,43.7 50.7,50.6 97.3,47.2C95.9,53.1 98.8,78.4 97.3,84.3C57.7,80.8 48.4,87.8 10.0,84.3C8.5,56.3 11.5,56.9 10.0,47.2" stroke="#000000" fill="#ffffff" style="stroke-width: 2;"></path><text x="20" y="70.3046875" style="font-size: 16px; font-family: danielbd;"><tspan x="20">Firebase</tspan></text></g><g class="actor"><path d="M10,350.671875C70.0,354.2 76.4,347.2 97.3,350.7C95.9,378.9 98.8,360.0 97.3,387.8C73.7,391.3 76.4,384.3 10.0,387.8C8.5,369.5 11.5,356.6 10.0,350.7" stroke="#000000" fill="#ffffff" style="stroke-width: 2;"></path><text x="20" y="373.8203125" style="font-size: 16px; font-family: danielbd;"><tspan x="20">Firebase</tspan></text></g><path d="M53.7,84.3C64.3,148.2 43.0,170.3 53.7,350.7" stroke="#000000" fill="none" style="stroke-width: 2;"></path><g class="actor"><path d="M156.171875,47.15625C201.6,43.7 206.5,50.6 243.4,47.2C241.9,53.5 244.9,56.1 243.4,84.3C222.5,87.8 177.1,80.8 156.2,84.3C157.7,56.1 154.7,53.5 156.2,47.2" stroke="#000000" fill="#ffffff" style="stroke-width: 2;"></path><text x="166.171875" y="70.875" style="font-size: 16px; font-family: danielbd;"><tspan x="166.171875">NodeJS</tspan></text></g><g class="actor"><path d="M156.171875,350.671875C177.1,347.2 170.1,354.2 243.4,350.7C244.9,370.4 241.9,380.0 243.4,387.8C177.1,384.3 200.8,391.3 156.2,387.8C154.7,381.9 157.7,362.5 156.2,350.7" stroke="#000000" fill="#ffffff" style="stroke-width: 2;"></path><text x="166.171875" y="374.390625" style="font-size: 16px; font-family: danielbd;"><tspan x="166.171875">NodeJS</tspan></text></g><path d="M199.8,84.3C210.5,308.1 189.1,128.7 199.8,350.7" stroke="#000000" fill="none" style="stroke-width: 2;"></path><g class="actor"><path d="M305.8671875,47.15625C356.0,50.1 323.7,44.2 380.1,47.2C378.6,75.4 381.6,63.2 380.1,84.3C323.6,87.3 351.1,81.3 305.9,84.3C307.4,66.3 304.4,57.1 305.9,47.2" stroke="#000000" fill="#ffffff" style="stroke-width: 2;"></path><text x="315.8671875" y="70.875" style="font-size: 16px; font-family: danielbd;"><tspan x="315.8671875">Redux</tspan></text></g><g class="actor"><path d="M305.8671875,350.671875C367.0,353.6 362.3,347.7 380.1,350.7C378.6,359.6 381.6,362.4 380.1,387.8C368.2,390.8 362.3,384.9 305.9,387.8C307.4,381.9 304.4,356.6 305.9,350.7" stroke="#000000" fill="#ffffff" style="stroke-width: 2;"></path><text x="315.8671875" y="374.390625" style="font-size: 16px; font-family: danielbd;"><tspan x="315.8671875">Redux</tspan></text></g><path d="M343.0,84.3C353.6,264.4 332.3,186.5 343.0,350.7" stroke="#000000" fill="none" style="stroke-width: 2;"></path><g class="actor"><path d="M420.6875,47.15625C520.2,42.4 457.5,51.9 539.2,47.2C540.7,78.4 537.7,53.1 539.2,84.3C504.3,89.1 492.4,79.6 420.7,84.3C422.2,56.1 419.2,63.2 420.7,47.2" stroke="#000000" fill="#ffffff" style="stroke-width: 2;"></path><text x="430.6875" y="70.875" style="font-size: 16px; font-family: danielbd;"><tspan x="430.6875">ReactDOM</tspan></text></g><g class="actor"><path d="M420.6875,350.671875C482.0,345.9 510.7,355.4 539.2,350.7C540.7,359.9 537.7,375.1 539.2,387.8C520.2,383.1 461.0,392.6 420.7,387.8C419.2,366.6 422.2,381.9 420.7,350.7" stroke="#000000" fill="#ffffff" style="stroke-width: 2;"></path><text x="430.6875" y="374.390625" style="font-size: 16px; font-family: danielbd;"><tspan x="430.6875">ReactDOM</tspan></text></g><path d="M479.9,84.3C469.3,286.7 490.6,148.2 479.9,350.7" stroke="#000000" fill="none" style="stroke-width: 2;"></path><g class="actor"><path d="M567.203125,47.15625C590.2,49.7 617.2,44.6 631.5,47.2C633.0,71.2 630.0,56.1 631.5,84.3C616.1,81.7 586.1,86.9 567.2,84.3C568.7,62.7 565.7,78.4 567.2,47.2" stroke="#000000" fill="#ffffff" style="stroke-width: 2;"></path><text x="577.203125" y="70.3046875" style="font-size: 16px; font-family: danielbd;"><tspan x="577.203125">User</tspan></text></g><g class="actor"><path d="M567.203125,350.671875C577.5,353.2 588.2,348.1 631.5,350.7C630.0,371.3 633.0,363.0 631.5,387.8C577.5,385.3 620.3,390.4 567.2,387.8C568.7,367.3 565.7,359.1 567.2,350.7" stroke="#000000" fill="#ffffff" style="stroke-width: 2;"></path><text x="577.203125" y="373.8203125" style="font-size: 16px; font-family: danielbd;"><tspan x="577.203125">User</tspan></text></g><path d="M599.3,84.3C610.0,203.1 588.7,286.7 599.3,350.7" stroke="#000000" fill="none" style="stroke-width: 2;"></path><g class="signal"><text x="63.671875" y="114.453125" style="font-size: 16px; font-family: danielbd;"><tspan x="63.671875">Whole Dataset</tspan></text><path d="M53.7,121.5C116.4,127.3 106.3,115.6 199.8,121.5" stroke="#000000" fill="none" style="stroke-width: 2; marker-end: url(&quot;#markerArrowBlock&quot;);"></path></g><g class="signal"><text x="404.078125" y="149.0390625" style="font-size: 16px; font-family: danielbd;"><tspan x="404.078125">update request</tspan></text><path d="M599.3,163.8C544.4,153.5 523.2,174.0 343.0,163.8" stroke="#000000" fill="none" style="stroke-width: 2; stroke-dasharray: 6, 2; marker-end: url(&quot;#markerArrowBlock&quot;);"></path></g><g class="signal"><text x="223.4921875" y="191.3359375" style="font-size: 16px; font-family: danielbd;"><tspan x="223.4921875">data query</tspan></text><path d="M343.0,206.1C293.9,200.3 316.5,211.8 199.8,206.1" stroke="#000000" fill="none" style="stroke-width: 2; stroke-dasharray: 6, 2; marker-end: url(&quot;#markerArrowBlock&quot;);"></path></g><g class="signal"><text x="209.796875" y="233.6328125" style="font-size: 16px; font-family: danielbd;"><tspan x="209.796875">returning data</tspan></text><path d="M199.8,248.4C299.5,254.1 235.7,242.6 343.0,248.4" stroke="#000000" fill="none" style="stroke-width: 2; marker-end: url(&quot;#markerArrowBlock&quot;);"></path></g><g class="signal"><text x="352.96875" y="276.5" style="font-size: 16px; font-family: danielbd;"><tspan x="352.96875">updated data</tspan></text><path d="M343.0,289.5C447.1,284.0 457.0,295.0 479.9,289.5" stroke="#000000" fill="none" style="stroke-width: 2; marker-end: url(&quot;#markerArrowBlock&quot;);"></path></g><g class="signal"><text x="489.9375" y="317.65625" style="font-size: 16px; font-family: danielbd;"><tspan x="489.9375">updated UI</tspan></text><path d="M479.9,330.7C570.7,325.9 508.6,335.4 599.3,330.7" stroke="#000000" fill="none" style="stroke-width: 2; marker-end: url(&quot;#markerArrowBlock&quot;);"></path></g></svg>